<svg width="180" height="180" viewBox="0 0 180 180" xmlns="http://www.w3.org/2000/svg">
  <rect width="180" height="180" rx="20" fill="#2874f0"/>
  <g transform="translate(45, 45)">
    <path d="M22.5 5.625C19.136 5.625 16.875 8.38672 16.875 11.25V16.875H11.25C8.38672 16.875 5.625 19.136 5.625 22.5C5.625 25.864 8.38672 28.125 11.25 28.125H11.8125L13.5 56.25C13.8359 61.875 18.1875 67.5 24.1875 67.5H56.8125C62.8125 67.5 67.1641 61.875 67.5 56.25L69.1875 28.125H69.75C72.6133 28.125 75.375 25.864 75.375 22.5C75.375 19.136 72.6133 16.875 69.75 16.875H61.875V11.25C61.875 8.38672 59.6133 5.625 56.25 5.625H22.5Z" fill="white"/>
    <circle cx="19.6875" cy="53.4375" r="2.8125" fill="white"/>
    <circle cx="53.4375" cy="53.4375" r="2.8125" fill="white"/>
  </g>
  <g transform="translate(112.5, 67.5)">
    <path d="M22.5 0C12.375 0 5.625 7.03125 5.625 16.875C5.625 33.1875 22.5 50.625 22.5 50.625S39.375 33.1875 39.375 16.875C39.375 7.03125 32.625 0 22.5 0ZM22.5 25.3125C17.7188 25.3125 14.0625 21.6562 14.0625 16.875C14.0625 12.0938 17.7188 8.4375 22.5 8.4375C27.2812 8.4375 30.9375 12.0938 30.9375 16.875C30.9375 21.6562 27.2812 25.3125 22.5 25.3125Z" fill="#ff9f00"/>
  </g>
</svg>
