<svg width="32" height="32" viewBox="0 0 32 32" xmlns="http://www.w3.org/2000/svg">
  <rect width="32" height="32" rx="4" fill="#2874f0"/>
  <g transform="translate(8, 8)">
    <path d="M4 1C3.44772 1 3 1.44772 3 2V3H1C0.44772 3 0 3.44772 0 4C0 4.55228 0.44772 5 1 5H1.05L1.45 10.1C1.48 10.6 1.9 11 2.4 11H7.6C8.1 11 8.52 10.6 8.55 10.1L8.95 5H9C9.55228 5 10 4.55228 10 4C10 3.44772 9.55228 3 9 3H7V2C7 1.44772 6.55228 1 6 1H4ZM4.5 3H5.5V4H4.5V3ZM1.55 5H8.45L8.1 9.9C8.08 9.95 8.05 10 8 10H2C1.95 10 1.92 9.95 1.9 9.9L1.55 5Z" fill="white"/>
    <circle cx="3.5" cy="8.5" r="0.5" fill="white"/>
    <circle cx="6.5" cy="8.5" r="0.5" fill="white"/>
  </g>
  <g transform="translate(20, 12)">
    <path d="M4 0C2.34 0 1 1.34 1 3C1 5.13 4 8 4 8S7 5.13 7 3C7 1.34 5.66 0 4 0ZM4 4.5C3.17 4.5 2.5 3.83 2.5 3C2.5 2.17 3.17 1.5 4 1.5C4.83 1.5 5.5 2.17 5.5 3C5.5 3.83 4.83 4.5 4 4.5Z" fill="#ff9f00"/>
  </g>
</svg>
